<?xml version="1.0" standalone="no"?>
<!DOCTYPE svg PUBLIC "-//W3C//DTD SVG 20010904//EN"
 "http://www.w3.org/TR/2001/REC-SVG-20010904/DTD/svg10.dtd">
<svg version="1.0" xmlns="http://www.w3.org/2000/svg"
 width="512.000000pt" height="512.000000pt" viewBox="0 0 512.000000 512.000000"
 preserveAspectRatio="xMidYMid meet">

<g transform="translate(0.000000,512.000000) scale(0.100000,-0.100000)"
fill="#000000" stroke="none">
<path d="M288 5046 c-91 -25 -174 -107 -198 -197 -7 -24 -9 -679 -8 -1885 l3
-1849 27 -51 c15 -29 46 -68 69 -87 84 -73 -115 -67 2388 -67 l2256 0 51 24
c61 28 115 82 146 145 l23 46 0 1855 0 1855 -27 50 c-30 58 -99 126 -155 152
-36 17 -148 18 -2283 20 -1791 1 -2255 -1 -2292 -11z m4561 -180 c21 -20 34
-45 41 -80 7 -35 9 -535 8 -1561 l-3 -1510 -2330 0 -2330 0 -3 1525 c-2 1047
0 1536 8 1562 6 20 26 50 46 67 l35 31 2249 -2 2249 -3 30 -29z"/>
<path d="M739 4391 l-24 -19 -3 -1134 c-1 -623 0 -1143 3 -1155 3 -12 15 -32
27 -43 22 -20 31 -20 1139 -20 l1118 0 20 26 c26 33 27 65 2 95 -18 23 -26 24
-178 29 l-158 5 -5 538 -5 539 -24 19 c-32 26 -63 24 -95 -6 l-26 -24 0 -536
0 -535 -165 0 -165 0 0 229 0 230 -26 20 c-15 12 -37 21 -49 21 -12 0 -34 -9
-49 -21 l-26 -20 0 -230 0 -229 -165 0 -165 0 0 369 c0 357 -1 369 -21 395
-27 34 -79 36 -109 4 -19 -21 -20 -33 -20 -395 l0 -373 -165 0 -165 0 0 225 0
226 -25 24 c-29 30 -64 32 -98 4 l-27 -20 -2 -227 -3 -227 -107 -3 -108 -3 0
1094 c0 1092 0 1094 -21 1121 -25 32 -75 35 -110 7z"/>
<path d="M3505 4386 c-120 -39 -193 -83 -286 -176 -72 -71 -93 -100 -132 -180
-84 -172 -99 -351 -43 -525 36 -114 89 -198 183 -292 68 -68 99 -90 175 -127
218 -105 453 -98 658 21 93 54 217 181 263 270 43 83 77 175 77 210 l0 23
-356 0 -356 0 -29 29 -29 29 0 371 0 371 -27 0 c-16 -1 -60 -11 -98 -24z"/>
<path d="M3790 4090 l0 -320 309 0 310 0 -6 38 c-34 243 -170 436 -378 537
-69 33 -173 65 -214 65 -21 0 -21 -1 -21 -320z"/>
<path d="M2527 3948 c-19 -24 -119 -160 -222 -303 -104 -143 -192 -264 -196
-269 -4 -4 -108 71 -231 168 -192 151 -228 176 -258 176 -33 0 -53 -18 -295
-260 -245 -245 -259 -261 -259 -296 0 -44 31 -74 77 -74 27 0 60 29 258 226
160 159 231 224 240 218 8 -4 112 -86 232 -181 239 -188 253 -195 299 -145 14
15 132 173 262 351 196 269 236 330 236 358 0 44 -30 73 -74 73 -29 0 -41 -7
-69 -42z"/>
<path d="M3303 2643 c-13 -2 -32 -16 -44 -31 -25 -32 -20 -78 12 -104 19 -17
56 -18 446 -18 l424 0 26 26 c20 20 24 31 19 57 -4 18 -15 41 -27 52 -19 19
-34 20 -427 21 -224 1 -417 0 -429 -3z"/>
<path d="M3265 2140 c-27 -30 -25 -88 4 -111 22 -18 48 -19 448 -19 l424 0 26
26 c20 20 24 31 19 57 -13 69 -1 67 -476 67 -418 0 -427 0 -445 -20z"/>
<path d="M1997 678 c3 -48 0 -95 -6 -110 l-11 -28 -134 0 c-159 0 -230 -18
-326 -82 -104 -69 -188 -196 -198 -298 -4 -42 -1 -49 23 -68 l28 -22 1187 0
1187 0 28 22 c24 19 27 26 22 65 -14 126 -132 273 -274 341 -78 37 -79 37
-238 42 l-160 5 -13 60 c-7 33 -10 81 -7 108 l6 47 -560 0 -559 0 5 -82z"/>
</g>
</svg>
